<svg height="511pt" viewBox="0 -69 511.99968 511" width="511pt" xmlns="http://www.w3.org/2000/svg"><path d="m492.253906 286.195312-.304687-.101562-105.246094-38.273438v-53.933593c.027344-30.722657-9.273437-60.730469-26.671875-86.050781-.089844-.132813-.183594-.246094-.273438-.367188-28.4375-41.433594-75.449218-66.203125-125.699218-66.230469h-10.695313c-2.652343-25.007812-25.078125-43.132812-50.089843-40.480469-21.898438 2.324219-39 19.984376-40.613282 41.949219-75.839844 10.0625-132.535156 74.675781-132.660156 151.179688v61.058593c0 5.621094 4.554688 10.175782 10.175781 10.175782h138.960938l41.347656 32.484375c22.460937 17.542969 47.960937 30.800781 75.222656 39.117187 9.617188 5.089844 19.335938 9.941406 29.195313 14.410156l10.441406 4.75c45.304688 20.753907 97.027344 22.515626 143.640625 4.894532l42.628906-15.984375c16.242188-6.097657 24.472657-24.207031 18.375-40.449219-3.101562-8.265625-9.539062-14.84375-17.734375-18.128906zm-145.09375-160.574218c12.476563 20.460937 19.117188 43.945312 19.191406 67.910156-1.683593.234375-3.386718.355469-5.089843.355469-19.667969-.074219-35.554688-16.082031-35.476563-35.753907.050782-14.117187 8.4375-26.867187 21.375-32.511718zm-133.457031-64.027344h20.355469c39.09375 0 76.175781 17.332031 101.253906 47.320312-27.335938 14.257813-37.9375 47.980469-23.675781 75.316407 9.640625 18.484375 28.777343 30.058593 49.625 30.007812 1.710937 0 3.402343-.203125 5.089843-.367187v30.898437h-101.765624v-33.917969c-.109376-52.828124-17.238282-104.214843-48.847657-146.542968zm-35.617187-40.707031c12.09375-.003907 22.515624 8.507812 24.933593 20.351562h-49.863281c2.417969-11.84375 12.839844-20.355469 24.929688-20.351562zm-96.675782 175.21875v48.664062h-61.058594v-50.882812c.105469-59.917969 40.4375-112.296875 98.335938-127.714844l-4 6.867187c-21.785156 37.355469-33.269531 79.824219-33.277344 123.066407zm20.355469 48.664062v-48.664062c.015625-39.640625 10.550781-78.566407 30.527344-112.804688l12.425781-21.300781c2.644531-.164062 5.273438-.40625 7.957031-.40625h35.617188l11.195312 14.917969c28.96875 38.800781 44.671875 85.90625 44.777344 134.328125v33.929687zm172.378906 73.410157c-12.292969-6.53125-24.375-13.492188-36.085937-20.953126l-50.464844-32.105468h187.144531l84.117188 30.589844-49.863281 18.378906c-43.34375 15.816406-90.628907 17.25-134.847657 4.089844zm210.316407 7.53125-42.628907 15.988281c-31.925781 12.039062-66.785156 13.953125-99.832031 5.472656 25.265625-.601563 50.261719-5.324219 74.003906-13.980469l71.449219-26.347656c2.605469 2.105469 4.148437 5.257812 4.203125 8.609375.027344 4.601563-2.859375 8.71875-7.195312 10.257813zm0 0"/></svg>